<svg width="128" height="128" viewBox="0 0 128 128" xmlns="http://www.w3.org/2000/svg">
  <defs>
    <linearGradient id="grad1" x1="0%" y1="0%" x2="100%" y2="100%">
      <stop offset="0%" style="stop-color:#667eea;stop-opacity:1" />
      <stop offset="100%" style="stop-color:#764ba2;stop-opacity:1" />
    </linearGradient>
  </defs>
  
  <!-- 背景圆形 -->
  <circle cx="64" cy="64" r="60" fill="url(#grad1)" stroke="#fff" stroke-width="4"/>
  
  <!-- 时钟外圈 -->
  <circle cx="64" cy="64" r="45" fill="none" stroke="#fff" stroke-width="3"/>
  
  <!-- 时钟刻度 -->
  <g stroke="#fff" stroke-width="2">
    <line x1="64" y1="24" x2="64" y2="30" />
    <line x1="104" y1="64" x2="98" y2="64" />
    <line x1="64" y1="104" x2="64" y2="98" />
    <line x1="24" y1="64" x2="30" y2="64" />
  </g>
  
  <!-- 时针 -->
  <line x1="64" y1="64" x2="64" y2="45" stroke="#fff" stroke-width="4" stroke-linecap="round"/>
  
  <!-- 分针 -->
  <line x1="64" y1="64" x2="80" y2="64" stroke="#fff" stroke-width="3" stroke-linecap="round"/>
  
  <!-- 中心点 -->
  <circle cx="64" cy="64" r="4" fill="#fff"/>
  
  <!-- 提醒铃铛 -->
  <g transform="translate(85, 35)">
    <path d="M0,8 Q0,0 8,0 Q16,0 16,8 L16,12 Q20,16 20,20 L-4,20 Q-4,16 0,12 Z" fill="#FFD700"/>
    <rect x="6" y="20" width="4" height="3" rx="2" fill="#FFD700"/>
    <circle cx="8" cy="8" r="1" fill="#FFA500"/>
  </g>
</svg>
